name C:\Users\Nicos\Documents\OpenSimProjects\SprintingProject\Study1\PredictiveResults\IC_pred_Sprinting_optimum_27-October-2023__11-55-39___IKTD_Minus_2_p02_maxVel_01.mot
datacolumns 38
datarows 7
range 0.10878322 0.11443954
endheader
                time	/jointset/ground_pelvis/pelvis_tilt/value	/jointset/ground_pelvis/pelvis_list/value	/jointset/ground_pelvis/pelvis_rotation/value	/jointset/ground_pelvis/pelvis_tx/value	/jointset/ground_pelvis/pelvis_ty/value	/jointset/ground_pelvis/pelvis_tz/value	/jointset/hip_r/hip_flexion_r/value	/jointset/hip_r/hip_adduction_r/value	/jointset/hip_r/hip_rotation_r/value	/jointset/knee_r/knee_angle_r/value	/jointset/ankle_r/ankle_angle_r/value	/jointset/subtalar_r/subtalar_angle_r/value	/jointset/mtp_r/mtp_angle_r/value	/jointset/hip_l/hip_flexion_l/value	/jointset/hip_l/hip_adduction_l/value	/jointset/hip_l/hip_rotation_l/value	/jointset/knee_l/knee_angle_l/value	/jointset/ankle_l/ankle_angle_l/value	/jointset/subtalar_l/subtalar_angle_l/value	/jointset/mtp_l/mtp_angle_l/value	/jointset/back/lumbar_extension/value	/jointset/back/lumbar_bending/value	/jointset/back/lumbar_rotation/value	/jointset/acromial_r/arm_flex_r/value	/jointset/acromial_r/arm_add_r/value	/jointset/acromial_r/arm_rot_r/value	/jointset/elbow_r/elbow_flex_r/value	/jointset/radioulnar_r/pro_sup_r/value	/jointset/radius_hand_r/wrist_flex_r/value	/jointset/radius_hand_r/wrist_dev_r/value	/jointset/acromial_l/arm_flex_l/value	/jointset/acromial_l/arm_add_l/value	/jointset/acromial_l/arm_rot_l/value	/jointset/elbow_l/elbow_flex_l/value	/jointset/radioulnar_l/pro_sup_l/value	/jointset/radius_hand_l/wrist_flex_l/value	/jointset/radius_hand_l/wrist_dev_l/value	
          0.10878322	         -9.11278604	          4.32704436	        -16.81681488	          0.64121432	          0.95658037	          0.30643027	          7.40998031	         -8.95801760	          9.05054736	        -28.41167303	         11.88629188	         -8.08897983	         12.00227086	         67.44272911	         -9.74004840	         -1.23730157	       -130.11431287	          2.12062790	        -22.02323197	         10.62654201	        -10.30410168	          0.52503221	          9.34175559	         63.65657523	        -11.28830685	         -9.66819489	        129.06834514	         86.89958062	        -18.65131782	          8.50118793	        -51.17072439	         -2.12830984	         -2.87270841	         93.30533066	         63.86107497	        -11.82876325	          8.79361500	
          0.11026529	         -9.12476797	          4.57708938	        -16.60565738	          0.65935605	          0.95621097	          0.30597919	          6.87598034	         -9.53437455	          8.69818523	        -29.10590584	         10.91528467	         -8.23974242	         11.21195116	         68.51682592	         -9.38168725	         -1.10461434	       -129.74789017	          2.10889090	        -21.96922505	         11.33017262	        -10.11547181	          0.28417714	          9.26524582	         65.09386079	        -10.73835375	         -8.88287311	        129.06135210	         86.57957600	        -18.48818998	          8.59580997	        -52.74343896	         -1.82369199	         -3.20312061	         94.21065036	         63.23036382	        -11.74218704	          8.74901997	
          0.11026529	         -9.12476797	          4.57708938	        -16.60565738	          0.65935605	          0.95621097	          0.30597919	          6.87598034	         -9.53437455	          8.69818523	        -29.10590584	         10.91528467	         -8.23974242	         11.21195116	         68.51682592	         -9.38168725	         -1.10461434	       -129.74789017	          2.10889090	        -21.96922505	         11.33017262	        -10.11547181	          0.28417714	          9.26524582	         65.09386079	        -10.73835375	         -8.88287311	        129.06135210	         86.57957600	        -18.48818998	          8.59580997	        -52.74343896	         -1.82369199	         -3.20312061	         94.21065036	         63.23036382	        -11.74218704	          8.74901997	
          0.11091251	         -9.13380307	          4.68220902	        -16.51398285	          0.66727154	          0.95605598	          0.30578955	          6.65251823	         -9.77752045	          8.54620560	        -29.41436771	         10.45020094	         -8.31735874	         10.85275630	         68.98298975	         -9.23320580	         -1.04826768	       -129.57462780	          2.10035896	        -21.94374814	         11.62573234	        -10.03163549	          0.18276410	          9.23403488	         65.70636599	        -10.49816598	         -8.54046832	        129.02789483	         86.44116431	        -18.41573092	          8.63270724	        -53.42090912	         -1.70092503	         -3.33818657	         94.58697994	         62.95503629	        -11.70746066	          8.72950418	
          0.11295747	         -9.16672673	          4.98866042	        -16.23518306	          0.69224669	          0.95560856	          0.30523110	          5.97274502	        -10.50236149	          8.08932400	        -30.40561124	          8.82256477	         -8.63440782	          9.53512732	         70.42912706	         -8.80803706	         -0.87312861	       -128.97492849	          2.05561288	        -21.86138981	         12.50099263	         -9.77691877	         -0.11692135	          9.15308772	         67.58428136	         -9.73967690	         -7.47560575	        128.79792734	         86.01160539	        -18.17963536	          8.73325122	        -55.51673754	         -1.35279876	         -3.72137266	         95.68958734	         62.08457913	        -11.61004961	          8.66718254	
          0.11443954	         -9.18893555	          5.18267888	        -16.04980588	          0.71030887	          0.95533267	          0.30487186	          5.49976835	        -10.98359557	          7.78851616	        -31.13614741	          7.51321947	         -8.91844463	          8.39895135	         71.44350188	         -8.54834876	         -0.74810237	       -128.49089727	          2.00194653	        -21.80878007	         13.06935690	         -9.61019389	         -0.31264092	          9.11708357	         68.89243562	         -9.19153023	         -6.73161245	        128.51182674	         85.70975922	        -18.00223617	          8.79096846	        -56.98759473	         -1.13723218	         -3.95251608	         96.39782233	         61.45448151	        -11.55113980	          8.62160879	
          0.11443954	         -9.18893555	          5.18267888	        -16.04980588	          0.71030887	          0.95533267	          0.30487186	          5.49976835	        -10.98359557	          7.78851616	        -31.13614741	          7.51321947	         -8.91844463	          8.39895135	         71.44350188	         -8.54834876	         -0.74810237	       -128.49089727	          2.00194653	        -21.80878007	         13.06935690	         -9.61019389	         -0.31264092	          9.11708357	         68.89243562	         -9.19153023	         -6.73161245	        128.51182674	         85.70975922	        -18.00223617	          8.79096846	        -56.98759473	         -1.13723218	         -3.95251608	         96.39782233	         61.45448151	        -11.55113980	          8.62160879	
